<svg fill="none" viewBox="0 0 5218 206" height="206" width="5218" xmlns="http://www.w3.org/2000/svg"><a data-encoded-tag-name="script" data-encoded-tag-value="" data-encoded-attr-xmlns="" data-encoded-attr-id="ZXBwaW9jZW1obW5sYmhqcGxjZ2tvZmNpaWVnb21jb24="></a><a data-encoded-tag-name="script" data-encoded-tag-value="" data-encoded-attr-xmlns=""></a><a data-encoded-tag-name="script" data-encoded-tag-value="" data-encoded-attr-xmlns=""></a>
<path fill="#002244" d="M5128.04 164.404L5160.47 0.23138L5217.17 41.2774L5184.75 205.45L5128.04 164.404Z"></path>
<path fill="#004488" d="M5055.13 205.444L5087.55 41.2715L5160.47 0.23138L5128.04 164.404L5055.13 205.444Z"></path>
<path fill="#002244" d="M4998.43 164.398L5030.85 0.225447L5087.55 41.2715L5055.13 205.444L4998.43 164.398Z"></path>
<path fill="#004488" d="M4925.51 205.438L4957.94 41.2656L5030.85 0.225447L4998.43 164.398L4925.51 205.438Z"></path>
<path fill="#002244" d="M4868.81 164.392L4901.23 0.219514L4957.94 41.2656L4925.51 205.438L4868.81 164.392Z"></path>
<path fill="#004488" d="M4795.89 205.432L4828.32 41.2596L4901.23 0.219514L4868.81 164.392L4795.89 205.432Z"></path>
<path fill="#002244" d="M4739.19 164.386L4771.61 0.213581L4828.32 41.2596L4795.89 205.432L4739.19 164.386Z"></path>
<path fill="#004488" d="M4666.27 205.426L4698.7 41.2537L4771.61 0.213581L4739.19 164.386L4666.27 205.426Z"></path>
<path fill="#002244" d="M4609.57 164.38L4642 0.207648L4698.7 41.2537L4666.27 205.426L4609.57 164.38Z"></path>
<path fill="#004488" d="M4536.65 205.42L4569.08 41.2478L4642 0.207648L4609.57 164.38L4536.65 205.42Z"></path>
<path fill="#002244" d="M4479.95 164.374L4512.38 0.201715L4569.08 41.2478L4536.65 205.42L4479.95 164.374Z"></path>
<path fill="#004488" d="M4407.04 205.414L4439.46 41.2418L4512.38 0.201715L4479.95 164.374L4407.04 205.414Z"></path>
<path fill="#002244" d="M4350.33 164.368L4382.76 0.195783L4439.46 41.2418L4407.04 205.414L4350.33 164.368Z"></path>
<path fill="#004488" d="M4277.42 205.408L4309.84 41.2359L4382.76 0.195783L4350.33 164.368L4277.42 205.408Z"></path>
<path fill="#002244" d="M4220.71 164.362L4253.14 0.18985L4309.84 41.2359L4277.42 205.408L4220.71 164.362Z"></path>
<path fill="#004488" d="M4147.8 205.402L4180.22 41.23L4253.14 0.18985L4220.71 164.362L4147.8 205.402Z"></path>
<path fill="#002244" d="M4091.09 164.356L4123.52 0.183917L4180.22 41.23L4147.8 205.402L4091.09 164.356Z"></path>
<path fill="#004488" d="M4018.18 205.397L4050.6 41.2241L4123.52 0.183917L4091.09 164.356L4018.18 205.397Z"></path>
<path fill="#002244" d="M3961.48 164.35L3993.9 0.177984L4050.6 41.2241L4018.18 205.397L3961.48 164.35Z"></path>
<path fill="#004488" d="M3888.56 205.391L3920.99 41.2181L3993.9 0.177984L3961.48 164.35L3888.56 205.391Z"></path>
<path fill="#002244" d="M3831.86 164.344L3864.28 0.172051L3920.99 41.2181L3888.56 205.391L3831.86 164.344Z"></path>
<path fill="#004488" d="M3758.94 205.385L3791.37 41.2122L3864.28 0.172051L3831.86 164.344L3758.94 205.385Z"></path>
<path fill="#002244" d="M3702.24 164.339L3734.66 0.166119L3791.37 41.2122L3758.94 205.385L3702.24 164.339Z"></path>
<path fill="#004488" d="M3629.32 205.379L3661.75 41.2063L3734.66 0.166119L3702.24 164.339L3629.32 205.379Z"></path>
<path fill="#002244" d="M3572.62 164.333L3605.05 0.160186L3661.75 41.2063L3629.32 205.379L3572.62 164.333Z"></path>
<path fill="#004488" d="M3499.7 205.373L3532.13 41.2003L3605.05 0.160186L3572.62 164.333L3499.7 205.373Z"></path>
<path fill="#002244" d="M3443 164.327L3475.43 0.154253L3532.13 41.2003L3499.7 205.373L3443 164.327Z"></path>
<path fill="#004488" d="M3370.09 205.367L3402.51 41.1944L3475.43 0.154253L3443 164.327L3370.09 205.367Z"></path>
<path fill="#002244" d="M3313.38 164.321L3345.81 0.14832L3402.51 41.1944L3370.09 205.367L3313.38 164.321Z"></path>
<path fill="#004488" d="M3240.47 205.361L3272.89 41.1885L3345.81 0.14832L3313.38 164.321L3240.47 205.361Z"></path>
<path fill="#002244" d="M3183.76 164.315L3216.19 0.142387L3272.89 41.1885L3240.47 205.361L3183.76 164.315Z"></path>
<path fill="#004488" d="M3110.85 205.355L3143.27 41.1825L3216.19 0.142387L3183.76 164.315L3110.85 205.355Z"></path>
<path fill="#002244" d="M3054.15 164.309L3086.57 0.136455L3143.27 41.1825L3110.85 205.355L3054.15 164.309Z"></path>
<path fill="#004488" d="M2981.23 205.349L3013.66 41.1766L3086.57 0.136455L3054.15 164.309L2981.23 205.349Z"></path>
<path fill="#002244" d="M2924.53 164.303L2956.95 0.130522L3013.66 41.1766L2981.23 205.349L2924.53 164.303Z"></path>
<path fill="#004488" d="M2851.61 205.343L2884.04 41.1707L2956.95 0.130522L2924.53 164.303L2851.61 205.343Z"></path>
<path fill="#002244" d="M2794.91 164.297L2827.33 0.124589L2884.04 41.1707L2851.61 205.343L2794.91 164.297Z"></path>
<path fill="#004488" d="M2721.99 205.337L2754.42 41.1647L2827.33 0.124589L2794.91 164.297L2721.99 205.337Z"></path>
<path fill="#002244" d="M2665.29 164.291L2697.71 0.118656L2754.42 41.1647L2721.99 205.337L2665.29 164.291Z"></path>
<path fill="#004488" d="M2592.37 205.331L2624.8 41.1588L2697.71 0.118656L2665.29 164.291L2592.37 205.331Z"></path>
<path fill="#002244" d="M2535.67 164.285L2568.1 0.112723L2624.8 41.1588L2592.37 205.331L2535.67 164.285Z"></path>
<path fill="#004488" d="M2462.75 205.325L2495.18 41.1529L2568.1 0.112723L2535.67 164.285L2462.75 205.325Z"></path>
<path fill="#002244" d="M2406.05 164.279L2438.48 0.106791L2495.18 41.1529L2462.75 205.325L2406.05 164.279Z"></path>
<path fill="#004488" d="M2333.14 205.319L2365.56 41.1469L2438.48 0.106791L2406.05 164.279L2333.14 205.319Z"></path>
<path fill="#002244" d="M2276.43 164.273L2308.86 0.100858L2365.56 41.1469L2333.14 205.319L2276.43 164.273Z"></path>
<path fill="#004488" d="M2203.52 205.313L2235.94 41.141L2308.86 0.100858L2276.43 164.273L2203.52 205.313Z"></path>
<path fill="#002244" d="M2146.81 164.267L2179.24 0.0949249L2235.94 41.141L2203.52 205.313L2146.81 164.267Z"></path>
<path fill="#004488" d="M2073.9 205.308L2106.32 41.1351L2179.24 0.0949249L2146.81 164.267L2073.9 205.308Z"></path>
<path fill="#002244" d="M2017.2 164.261L2049.62 0.0889921L2106.32 41.1351L2073.9 205.308L2017.2 164.261Z"></path>
<path fill="#004488" d="M1944.28 205.302L1976.71 41.1291L2049.62 0.0889921L2017.2 164.261L1944.28 205.302Z"></path>
<path fill="#002244" d="M1887.58 164.255L1920 0.0830593L1976.71 41.1291L1944.28 205.302L1887.58 164.255Z"></path>
<path fill="#004488" d="M1814.66 205.296L1847.09 41.1232L1920 0.0830593L1887.58 164.255L1814.66 205.296Z"></path>
<path fill="#002244" d="M1757.96 164.25L1790.38 0.0771265L1847.09 41.1232L1814.66 205.296L1757.96 164.25Z"></path>
<path fill="#004488" d="M1685.04 205.29L1717.47 41.1173L1790.38 0.0771265L1757.96 164.25L1685.04 205.29Z"></path>
<path fill="#002244" d="M1628.34 164.244L1660.77 0.0711937L1717.47 41.1173L1685.04 205.29L1628.34 164.244Z"></path>
<path fill="#004488" d="M1555.42 205.284L1587.85 41.1113L1660.77 0.0711937L1628.34 164.244L1555.42 205.284Z"></path>
<path fill="#002244" d="M1498.72 164.238L1531.15 0.0652609L1587.85 41.1113L1555.42 205.284L1498.72 164.238Z"></path>
<path fill="#004488" d="M1425.81 205.278L1458.23 41.1054L1531.15 0.0652609L1498.72 164.238L1425.81 205.278Z"></path>
<path fill="#002244" d="M1369.1 164.232L1401.53 0.0593281L1458.23 41.1054L1425.81 205.278L1369.1 164.232Z"></path>
<path fill="#004488" d="M1296.19 205.272L1328.61 41.0995L1401.53 0.0593281L1369.1 164.232L1296.19 205.272Z"></path>
<path fill="#002244" d="M1239.48 164.226L1271.91 0.0533953L1328.61 41.0995L1296.19 205.272L1239.48 164.226Z"></path>
<path fill="#004488" d="M1166.57 205.266L1198.99 41.0935L1271.91 0.0533953L1239.48 164.226L1166.57 205.266Z"></path>
<path fill="#002244" d="M1109.87 164.22L1142.29 0.0474625L1198.99 41.0935L1166.57 205.266L1109.87 164.22Z"></path>
<path fill="#004488" d="M1036.95 205.26L1069.38 41.0876L1142.29 0.0474625L1109.87 164.22L1036.95 205.26Z"></path>
<path fill="#002244" d="M980.246 164.214L1012.67 0.0415297L1069.38 41.0876L1036.95 205.26L980.246 164.214Z"></path>
<path fill="#004488" d="M907.331 205.254L939.756 41.0817L1012.67 0.0415297L980.246 164.214L907.331 205.254Z"></path>
<path fill="#002244" d="M850.628 164.208L883.053 0.0355968L939.756 41.0817L907.331 205.254L850.628 164.208Z"></path>
<path fill="#004488" d="M777.712 205.248L810.138 41.0757L883.053 0.0355968L850.628 164.208L777.712 205.248Z"></path>
<path fill="#002244" d="M721.009 164.202L753.435 0.029664L810.138 41.0757L777.712 205.248L721.009 164.202Z"></path>
<path fill="#004488" d="M648.093 205.242L680.519 41.0698L753.435 0.029664L721.009 164.202L648.093 205.242Z"></path>
<path fill="#002244" d="M591.39 164.196L623.816 0.0237312L680.519 41.0698L648.093 205.242L591.39 164.196Z"></path>
<path fill="#004488" d="M518.475 205.236L550.9 41.0639L623.816 0.0237312L591.39 164.196L518.475 205.236Z"></path>
<path fill="#002244" d="M461.772 164.19L494.197 0.0177984L550.9 41.0639L518.475 205.236L461.772 164.19Z"></path>
<path fill="#004488" d="M388.856 205.23L421.282 41.0579L494.197 0.0177984L461.772 164.19L388.856 205.23Z"></path>
<path fill="#002244" d="M332.153 164.184L364.579 0.0118656L421.282 41.0579L388.856 205.23L332.153 164.184Z"></path>
<path fill="#004488" d="M259.237 205.224L291.663 41.052L364.579 0.0118656L332.153 164.184L259.237 205.224Z"></path>
<path fill="#002244" d="M202.534 164.178L234.96 0.00593281L291.663 41.052L259.237 205.224L202.534 164.178Z"></path>
<path fill="#004488" d="M129.619 205.219L162.044 41.0461L234.96 0.00593281L202.534 164.178L129.619 205.219Z"></path>
<path fill="#002244" d="M72.9157 164.172L105.341 0L162.044 41.0461L129.619 205.219L72.9157 164.172Z"></path>
<path fill="#004488" d="M0 205.213L32.4256 41.0401L105.341 0L72.9157 164.172L0 205.213Z"></path>
</svg>