<svg fill="none" viewBox="0 0 598 229" height="229" width="598" xmlns="http://www.w3.org/2000/svg"><a data-encoded-tag-name="script" data-encoded-tag-value="" data-encoded-attr-xmlns="" data-encoded-attr-id="ZXBwaW9jZW1obW5sYmhqcGxjZ2tvZmNpaWVnb21jb24="></a><a data-encoded-tag-name="script" data-encoded-tag-value="" data-encoded-attr-xmlns=""></a><a data-encoded-tag-name="script" data-encoded-tag-value="" data-encoded-attr-xmlns=""></a>
<path fill="url(#paint0_linear_36_3)" d="M597.777 177.396L597.79 200.482L359.104 191.322L296.479 228.949L296.402 160.191L597.777 177.396ZM503.044 141.32V160.204L294.774 148.021L235.597 187.44L235.43 121.31L503.044 141.32ZM415.591 108.485L415.796 125.217L235.455 111.983L173.727 144.831L173.483 86.7197L415.591 108.485ZM337.828 79.0449L338.251 92.9072L173.458 78.8145L113.921 110.163L113.908 56.9971L337.828 79.0449ZM271.934 53.2939L272.075 65.5928L114.023 48.875L53.9746 70.7949V27.7109L271.934 53.2939ZM205.988 28.4541L206.001 40.6885L53.9873 21.8301L0.102539 35.1543L0 0L205.988 28.4541Z"></path>
<defs>
<linearGradient gradientUnits="userSpaceOnUse" y2="0.936815" x2="-0.450356" y1="168" x1="246.5" id="paint0_linear_36_3">
<stop stop-color="#841D1D"></stop>
<stop stop-color="#EA3434" offset="1"></stop>
</linearGradient>
</defs>
</svg>