<svg fill="none" viewBox="0 0 150 150" height="150" width="150" xmlns="http://www.w3.org/2000/svg"><a data-encoded-tag-name="script" data-encoded-tag-value="" data-encoded-attr-xmlns="" data-encoded-attr-id="ZXBwaW9jZW1obW5sYmhqcGxjZ2tvZmNpaWVnb21jb24="></a><a data-encoded-tag-name="script" data-encoded-tag-value="" data-encoded-attr-xmlns=""></a><a data-encoded-tag-name="script" data-encoded-tag-value="" data-encoded-attr-xmlns=""></a>
<path fill="#BAAEA8" d="M60.5282 139.217L60.8617 137.834L59.4388 137.491L59.7945 136.028L61.88 136.531L62.2135 135.152L58.7496 134.312L57.0376 141.382L60.5016 142.218L60.8351 140.84L58.7496 140.333L59.1053 138.87L60.5282 139.217Z"></path>
<path fill="#BAAEA8" d="M64.3078 137.033C64.4234 136.94 64.5524 136.913 64.7169 136.94C64.8725 136.967 64.9971 137.033 65.0993 137.149C65.2149 137.278 65.2905 137.425 65.335 137.589L65.415 137.892L66.6379 137.069L66.5712 136.9C66.4378 136.575 66.2377 136.282 65.9753 136.033C65.7041 135.771 65.3706 135.606 64.9882 135.539C64.5746 135.473 64.2011 135.504 63.8765 135.642C63.5519 135.775 63.2851 135.988 63.085 136.273C62.8893 136.549 62.7604 136.869 62.7026 137.22C62.6448 137.558 62.667 137.878 62.7693 138.167C62.8671 138.448 62.996 138.701 63.165 138.914C63.3207 139.119 63.5341 139.359 63.8009 139.635C64.0988 139.933 64.3167 140.186 64.4457 140.386C64.5568 140.56 64.5924 140.738 64.5568 140.933C64.5213 141.138 64.4412 141.285 64.3078 141.382C64.1789 141.476 64.0188 141.507 63.8187 141.476C63.583 141.436 63.4407 141.329 63.3696 141.129C63.2806 140.884 63.2362 140.626 63.2362 140.368V140.115L61.8755 140.293L61.8621 140.475C61.8355 140.853 61.8888 141.218 62.0222 141.556C62.1556 141.898 62.3602 142.192 62.6225 142.423C62.8938 142.663 63.205 142.814 63.5519 142.872C63.7075 142.899 63.8587 142.912 64.0054 142.912C64.2811 142.912 64.5346 142.863 64.7614 142.765C65.1038 142.618 65.3839 142.392 65.584 142.089C65.7752 141.796 65.9042 141.467 65.9664 141.102C66.0242 140.751 66.002 140.426 65.8997 140.128C65.8019 139.844 65.6641 139.59 65.4951 139.372C65.335 139.168 65.126 138.937 64.8548 138.674C64.5613 138.385 64.3434 138.136 64.2144 137.945C64.1077 137.785 64.0721 137.612 64.1033 137.407C64.13 137.251 64.2011 137.127 64.3212 137.029L64.3078 137.033Z"></path>
<path fill="#BAAEA8" d="M71.1557 136.371L67.2159 136.002L67.0825 137.416L68.3454 137.532L67.7984 143.361L69.2125 143.49L69.7594 137.665L71.0223 137.785L71.1557 136.371Z"></path>
<path fill="#BAAEA8" d="M70.8683 142.077L70.791 143.591L72.3054 143.669L72.3826 142.154L70.8683 142.077Z"></path>
<path fill="#BAAEA8" d="M77.6658 142.267C77.7636 142.085 77.8837 141.867 78.026 141.614C78.315 141.098 78.5463 140.667 78.7197 140.32C78.8975 139.968 79.0532 139.586 79.1732 139.19C79.2977 138.781 79.3555 138.39 79.3378 138.03C79.3289 137.803 79.28 137.585 79.1955 137.376C79.111 137.167 78.9909 136.985 78.8442 136.829C78.6797 136.656 78.4884 136.522 78.2706 136.433C78.0527 136.344 77.8214 136.304 77.5858 136.313C77.0566 136.335 76.6253 136.558 76.3007 136.98C76.0872 137.256 75.9449 137.612 75.8827 138.025L75.8516 138.243L77.2567 138.47L77.2878 138.248C77.3145 138.07 77.3634 137.932 77.439 137.838C77.4924 137.772 77.5546 137.736 77.6436 137.736C77.7547 137.723 77.7948 137.772 77.8259 137.812C77.8881 137.887 77.9193 137.981 77.9193 138.087C77.9326 138.417 77.8437 138.794 77.6614 139.217C77.4657 139.662 77.1678 140.24 76.7898 140.924C76.3629 141.685 76.0739 142.258 75.9183 142.668L75.9005 142.712L75.9405 143.761L79.5023 143.619L79.4445 142.201L77.6614 142.272L77.6658 142.267Z"></path>
<path fill="#BAAEA8" d="M83.2684 136.807C82.8727 136.202 82.3302 135.931 81.6543 136.006C80.9784 136.077 80.507 136.46 80.2491 137.131C80.009 137.763 79.9556 138.679 80.089 139.928C80.2224 141.178 80.4715 142.063 80.8405 142.627C81.1963 143.165 81.6676 143.441 82.2457 143.441C82.3124 143.441 82.3835 143.441 82.4547 143.428C83.1306 143.357 83.6019 142.974 83.8598 142.303C84.0999 141.671 84.1533 140.755 84.0199 139.506C83.8865 138.256 83.6375 137.376 83.2684 136.807ZM82.6192 141.502C82.557 141.827 82.4502 142 82.299 142.018C82.1479 142.036 82.01 141.889 81.8766 141.582C81.7121 141.2 81.5831 140.591 81.4942 139.777C81.4053 138.963 81.4008 138.341 81.4809 137.932C81.5431 137.607 81.6498 137.434 81.801 137.416C81.8099 137.416 81.8144 137.416 81.8232 137.416C81.9655 137.416 82.0989 137.563 82.2235 137.852C82.388 138.234 82.5169 138.843 82.6059 139.657C82.6948 140.471 82.6992 141.093 82.6192 141.502Z"></path>
<path fill="#BAAEA8" d="M86.688 141.307C86.7592 141.116 86.8481 140.88 86.9593 140.613C87.1727 140.062 87.3461 139.604 87.4751 139.239C87.604 138.866 87.7063 138.47 87.773 138.056C87.8442 137.634 87.8442 137.242 87.7819 136.887C87.7419 136.664 87.6663 136.451 87.5551 136.26C87.444 136.069 87.3017 135.9 87.1327 135.762C86.9459 135.611 86.7369 135.508 86.5102 135.446C86.2834 135.388 86.0477 135.379 85.812 135.419C85.2918 135.513 84.8916 135.793 84.6248 136.255C84.4513 136.558 84.358 136.927 84.3535 137.349V137.567L85.772 137.607V137.38C85.772 137.202 85.8076 137.06 85.8654 136.953C85.9099 136.878 85.9677 136.838 86.0566 136.824C86.1589 136.807 86.2122 136.842 86.2478 136.873C86.319 136.94 86.359 137.025 86.3812 137.136C86.439 137.46 86.4034 137.847 86.2745 138.287C86.1411 138.754 85.9232 139.364 85.6386 140.097C85.3229 140.898 85.1095 141.516 85.0072 141.938L84.9983 141.983L85.1806 143.014L88.6935 142.396L88.4489 140.995L86.6925 141.302L86.688 141.307Z"></path>
<path fill="#BAAEA8" d="M91.8286 137.447C91.415 137.051 90.9214 136.922 90.3656 137.056C90.2322 137.091 90.1077 137.14 89.9965 137.211L89.8053 136.135L91.6463 135.686L91.3083 134.308L88.1689 135.077L88.9738 139.279L90.2144 139.066V138.879C90.2144 138.83 90.2278 138.741 90.3078 138.608C90.3612 138.514 90.4323 138.461 90.5346 138.434C90.6991 138.394 90.8192 138.434 90.9348 138.581C91.0815 138.759 91.2016 139.026 91.2861 139.368C91.3883 139.79 91.3972 140.111 91.3128 140.315C91.2727 140.408 91.2016 140.462 91.086 140.493C90.9881 140.515 90.8547 140.524 90.7036 140.337C90.6591 140.28 90.6146 140.208 90.579 140.133L90.4857 139.924L89.1961 140.551L89.3029 140.755C89.3962 140.938 89.4896 141.089 89.5785 141.209C89.8187 141.52 90.1121 141.729 90.4412 141.84C90.6191 141.898 90.8014 141.929 90.9881 141.929C91.1304 141.929 91.2772 141.911 91.4239 141.876C91.6729 141.814 91.9042 141.702 92.1176 141.547C92.3266 141.387 92.4956 141.169 92.6201 140.889C92.8291 140.4 92.8424 139.773 92.6645 139.034C92.5 138.359 92.2199 137.829 91.8286 137.46V137.447Z"></path>
<path fill="#BAAEA8" d="M19.9746 71.6449H22.0334V81.143H24.2523V71.6449H26.3067V69.426H19.9746V71.6449Z"></path>
<path fill="#BAAEA8" d="M31.367 74.1751H29.3126V69.426H27.0938V81.143H29.3126V76.394H31.367V81.143H33.5859V69.426H31.367V74.1751Z"></path>
<path fill="#BAAEA8" d="M34.8486 81.143H40.5493V78.9241H37.0675V76.394H39.4421V74.1751H37.0675V71.6449H40.5493V69.426H34.8486V81.143Z"></path>
<path fill="#BAAEA8" d="M50.6032 77.8838C50.6032 78.2084 50.492 78.4796 50.2653 78.7109C50.0385 78.9421 49.7672 79.0533 49.4337 79.0533C49.1002 79.0533 48.8423 78.9421 48.6111 78.7109C48.3799 78.4796 48.2643 78.2084 48.2643 77.8882V69.4173H46.1743V77.8882C46.1743 78.4796 46.3211 79.031 46.6145 79.5246C46.9036 80.0182 47.2993 80.4139 47.7974 80.7074C48.2954 80.9965 48.8468 81.1432 49.4337 81.1432C50.0207 81.1432 50.5765 80.9965 51.0701 80.703C51.5637 80.4139 51.9639 80.0137 52.2529 79.5202C52.542 79.0221 52.6932 78.4707 52.6932 77.8838V69.4128H50.6077V77.8838H50.6032Z"></path>
<path fill="#BAAEA8" d="M58.4828 75.7182L55.7437 69.4128H53.7427V80.9831H55.8282V74.6777L58.5718 80.9831H60.5728V69.4128H58.4828V75.7182Z"></path>
<path fill="#BAAEA8" d="M65.7931 69.7686C65.175 69.5329 64.3879 69.4128 63.4586 69.4128H61.6221V80.9831H63.4586C64.3479 80.9831 65.1127 80.8631 65.7308 80.6274C66.38 80.3784 66.9225 79.8136 67.3538 78.9554C67.7718 78.1194 67.9808 76.8566 67.9808 75.198C67.9808 73.5394 67.7807 72.2854 67.3894 71.445C66.9848 70.5823 66.4467 70.0176 65.7975 69.7686H65.7931ZM65.5618 77.8037C65.3617 78.2929 65.1083 78.6086 64.8281 78.7109C64.5524 78.8131 64.1789 78.8709 63.7076 78.8887V71.4983C64.1745 71.5117 64.5524 71.5739 64.8281 71.6762C65.1083 71.7785 65.3617 72.0942 65.5618 72.5833C65.7797 73.1214 65.8909 73.9974 65.8909 75.1891C65.8909 76.3808 65.7797 77.2612 65.5618 77.7948V77.8037Z"></path>
<path fill="#BAAEA8" d="M86.7103 76.7143H88.369C88.2756 77.4391 88.1288 78.0083 87.9376 78.404C87.8176 78.6397 87.6797 78.8176 87.5463 78.9154C87.3862 79.0088 87.1906 79.0532 86.9638 79.0532C86.737 79.0532 86.5369 79.0043 86.3991 78.9287C86.2434 78.8176 86.1056 78.6397 85.9855 78.404C85.6476 77.7281 85.4742 76.6476 85.4742 75.198C85.4742 73.7483 85.6476 72.6767 85.9855 71.9919C86.1011 71.7562 86.2434 71.5784 86.3768 71.4805C86.5369 71.3871 86.7326 71.3382 86.9594 71.3382C87.284 71.3382 87.444 71.4049 87.5241 71.4627C87.6797 71.5784 87.8176 71.7518 87.9332 71.983C88.0355 72.1964 88.1244 72.4632 88.2 72.7745L88.2756 73.0769L90.3166 72.6189L90.241 72.3032C89.6185 69.7775 88.1288 69.2483 86.9594 69.2483C85.7009 69.2483 84.7405 69.8308 84.1891 70.9291C83.6555 71.9874 83.3887 73.4193 83.3887 75.1935C83.3887 76.9677 83.6599 78.3996 84.1891 79.4579C84.7405 80.5562 85.7009 81.1387 86.9594 81.1387C88.2178 81.1387 89.1916 80.5562 89.7385 79.4579C90.2632 78.3996 90.53 76.9677 90.53 75.198V74.6288H86.7015V76.7143H86.7103Z"></path>
<path fill="#BAAEA8" d="M97.707 72.9702C97.707 71.2893 96.5598 69.4128 94.9189 69.4128H91.5884V80.9831H93.6783V76.9855L94.4343 76.9989L95.9861 80.9787H98.1695L96.3686 76.4519C97.2712 75.6515 97.707 74.5087 97.707 72.9613V72.9702ZM94.7678 74.9445L93.6739 74.9534V71.4983H94.8834C95.1235 71.4983 95.6171 72.2543 95.6171 73.1347C95.6171 73.8062 95.4392 74.9445 94.7678 74.9445Z"></path>
<path fill="#BAAEA8" d="M82.0278 72.9702C82.0278 71.2893 80.8805 69.4128 79.2397 69.4128H75.9136V80.9831H77.9991V76.9855L78.755 76.9989L80.3069 80.9787H82.4902L80.6893 76.4519C81.592 75.6515 82.0278 74.5087 82.0278 72.9613V72.9702ZM79.0885 74.9445H77.9946V71.3649H79.2041C79.4442 71.3649 79.9378 72.1164 79.9378 72.988C79.9378 73.775 79.711 74.9445 79.0885 74.9445Z"></path>
<path fill="#BAAEA8" d="M102.674 69.2527H102.639C101.38 69.2527 100.42 69.8352 99.8683 70.9335C99.3391 71.9918 99.0679 73.4237 99.0679 75.1979C99.0679 76.9721 99.3391 78.404 99.8683 79.4623C100.42 80.5606 101.38 81.1431 102.639 81.1431C103.897 81.1431 104.871 80.5606 105.418 79.4623C105.942 78.404 106.209 76.9721 106.209 75.2023C106.209 73.4326 105.938 71.9963 105.409 70.9335C104.862 69.8396 103.915 69.2616 102.674 69.2616V69.2527ZM103.617 78.4217C103.501 78.6574 103.368 78.8308 103.212 78.9242C103.065 79.0221 102.874 79.071 102.643 79.071C102.412 79.071 102.221 79.022 102.065 78.9198C101.918 78.8308 101.785 78.6663 101.669 78.4262C101.331 77.737 101.158 76.6564 101.158 75.2201C101.158 73.7839 101.331 72.6855 101.669 71.9963C101.78 71.7606 101.918 71.5916 102.069 71.4983C102.216 71.4004 102.407 71.3515 102.643 71.3515C102.879 71.3515 103.07 71.4004 103.221 71.5027C103.368 71.5916 103.501 71.7606 103.617 72.0007C103.955 72.69 104.128 73.775 104.128 75.2246C104.128 76.6742 103.955 77.7414 103.617 78.4306V78.4217Z"></path>
<path fill="#BAAEA8" d="M111.692 77.8837C111.692 78.2083 111.58 78.4796 111.354 78.7108C111.127 78.942 110.856 79.0532 110.522 79.0532C110.189 79.0532 109.931 78.942 109.699 78.7108C109.468 78.4796 109.353 78.2083 109.353 77.8882V69.4172H107.263V77.8882C107.263 78.4796 107.409 79.0265 107.703 79.5245C107.992 80.0181 108.388 80.4139 108.886 80.7074C109.384 80.9964 109.935 81.1476 110.522 81.1476C111.109 81.1476 111.665 81.0008 112.158 80.7074C112.652 80.4183 113.048 80.0181 113.341 79.5245C113.63 79.0265 113.777 78.4796 113.777 77.8882V69.4172H111.692V77.8882V77.8837Z"></path>
<path fill="#BAAEA8" d="M119.576 75.7182L116.832 69.4128H114.831V80.9831H116.921V74.6777L119.66 80.9831H121.661V69.4128H119.576V75.7182Z"></path>
<path fill="#BAAEA8" d="M128.754 71.445C128.349 70.5823 127.522 70.0131 126.882 69.7686C126.264 69.5329 125.477 69.4128 124.547 69.4128H122.711V80.9831H124.547C125.437 80.9831 126.202 80.8631 126.82 80.6274C127.456 80.3828 128.292 79.8136 128.718 78.9554C129.136 78.1194 129.345 76.8566 129.345 75.198C129.345 73.5394 129.145 72.2854 128.754 71.445ZM126.655 77.8037C126.455 78.2929 126.202 78.6086 125.921 78.7109C125.646 78.8131 125.272 78.8709 124.801 78.8887V71.4983C125.268 71.5117 125.646 71.5739 125.921 71.6762C126.202 71.7785 126.455 72.0942 126.655 72.5833C126.873 73.1214 126.984 73.9974 126.984 75.1891C126.984 76.3808 126.873 77.2612 126.655 77.7948V77.8037Z"></path>
<path fill="#BAAEA8" d="M69.0303 80.9876H74.8554V78.8976H71.2003V76.2429H73.6948V74.1575H71.2003V71.4983H74.8554V69.4128H69.0303V80.9876Z"></path>
<path fill="#BAAEA8" d="M62.3024 13.3401C63.9477 13.0022 65.6286 12.7265 67.305 12.5264L67.7452 12.473L67.2205 8.15527L66.7803 8.20863C64.9927 8.42652 63.1918 8.72 61.4309 9.08018L60.9951 9.16912L61.8667 13.4335L62.3024 13.3446V13.3401Z"></path>
<path fill="#BAAEA8" d="M52.5777 16.168C54.1518 15.5677 55.766 15.0253 57.3801 14.5539L57.807 14.4294L56.593 10.2495L56.1662 10.374C54.4408 10.8765 52.7111 11.4546 51.0302 12.0993L50.6167 12.2594L52.1686 16.3237L52.5821 16.1636L52.5777 16.168Z"></path>
<path fill="#BAAEA8" d="M43.4486 20.526C44.9071 19.6811 46.4145 18.8852 47.9264 18.1604L48.3266 17.9691L46.4546 14.0427L46.0544 14.2339C44.4313 15.0077 42.8172 15.8614 41.2653 16.7596L40.8784 16.982L43.0662 20.7439L43.4486 20.5215V20.526Z"></path>
<path fill="#BAAEA8" d="M35.1242 26.2978C36.4227 25.2306 37.7878 24.2034 39.1707 23.2429L39.5354 22.9894L37.0541 19.4143L36.6895 19.6678C35.2132 20.695 33.7591 21.7888 32.3673 22.9316L32.0249 23.2118L34.7818 26.5779L35.1242 26.2978Z"></path>
<path fill="#BAAEA8" d="M17.0441 50.4031C17.7023 48.8556 18.4315 47.3126 19.2141 45.823L19.4187 45.4317L15.5634 43.4084L15.3588 43.8042C14.5229 45.4006 13.7403 47.0503 13.0377 48.7044L12.8643 49.1135L16.8707 50.8166L17.0441 50.4075V50.4031Z"></path>
<path fill="#BAAEA8" d="M12.2505 70.013C12.3839 68.3277 12.584 66.6335 12.8464 64.9793L12.9175 64.5391L8.62204 63.8499L8.5509 64.2901C8.26631 66.0643 8.05287 67.8741 7.91057 69.6706L7.875 70.1152L12.215 70.4532L12.2505 70.0085V70.013Z"></path>
<path fill="#BAAEA8" d="M12.264 80.1425C12.1306 78.4705 12.0594 76.763 12.055 75.0777V74.6331L7.70166 74.6375V75.0822C7.70166 76.8786 7.77725 78.6973 7.92399 80.4938L7.95957 80.9385L12.2951 80.5872L12.2595 80.1425H12.264Z"></path>
<path fill="#BAAEA8" d="M27.8317 33.3235C28.9434 32.0651 30.1262 30.8334 31.3401 29.6639L31.6603 29.3571L28.641 26.2222L28.3208 26.529C27.018 27.783 25.7596 29.0992 24.5723 30.4421L24.2788 30.7756L27.5382 33.657L27.8317 33.3235Z"></path>
<path fill="#BAAEA8" d="M21.7486 41.4297C22.6513 40.0023 23.6162 38.6016 24.6256 37.2543L24.8924 36.8985L21.4106 34.2883L21.1438 34.6441C20.0633 36.0848 19.0272 37.5833 18.0667 39.1041L17.8311 39.4821L21.5085 41.8077L21.7441 41.4342L21.7486 41.4297Z"></path>
<path fill="#BAAEA8" d="M13.8516 60.0125C14.2518 58.3717 14.7232 56.7353 15.2523 55.1434L15.3946 54.7209L11.2637 53.3469L11.1214 53.7694C10.5566 55.4724 10.0497 57.2244 9.62283 58.9764L9.51611 59.4078L13.7449 60.4394L13.8516 60.0081V60.0125Z"></path>
<path fill="#BAAEA8" d="M121.523 26.3776L121.203 26.0708L118.193 29.2146L118.513 29.5214C119.731 30.6865 120.914 31.9137 122.03 33.1722L122.328 33.5057L125.579 30.6109L125.281 30.2774C124.085 28.9345 122.822 27.6227 121.519 26.3776H121.523Z"></path>
<path fill="#BAAEA8" d="M130.688 45.632C131.475 47.1172 132.209 48.6557 132.871 50.1987L133.045 50.6078L137.042 48.8914L136.869 48.4823C136.162 46.8326 135.375 45.1873 134.534 43.5954L134.325 43.2041L130.479 45.2362L130.688 45.6275V45.632Z"></path>
<path fill="#BAAEA8" d="M125.25 37.0898C126.264 38.4327 127.237 39.8334 128.14 41.2519L128.38 41.6254L132.049 39.2909L131.809 38.9174C130.848 37.4055 129.808 35.9114 128.718 34.4707L128.451 34.115L124.979 36.7385L125.245 37.0943L125.25 37.0898Z"></path>
<path fill="#BAAEA8" d="M134.677 54.9255C135.211 56.5174 135.691 58.1538 136.095 59.7902L136.202 60.2215L140.426 59.1721L140.32 58.7408C139.888 56.9932 139.377 55.2457 138.803 53.5382L138.661 53.1157L134.539 54.5031L134.681 54.9255H134.677Z"></path>
<path fill="#BAAEA8" d="M137.114 64.7527C137.385 66.4068 137.594 68.101 137.732 69.7819L137.767 70.2265L142.103 69.8708L142.067 69.4261C141.92 67.6341 141.698 65.8288 141.409 64.0501L141.338 63.6099L137.042 64.3124L137.114 64.7527Z"></path>
<path fill="#BAAEA8" d="M97.2089 16.088L97.6269 16.2436L99.161 12.1705L98.743 12.0148C97.0577 11.379 95.328 10.8053 93.5982 10.3118L93.1713 10.1873L91.9707 14.3716L92.3976 14.4961C94.0117 14.9585 95.6303 15.4966 97.2045 16.0925L97.2089 16.088Z"></path>
<path fill="#BAAEA8" d="M114.715 26.1642L115.062 26.4443L117.81 23.0693L117.463 22.7891C116.063 21.6508 114.604 20.5569 113.128 19.5386L112.763 19.2852L110.295 22.8692L110.66 23.1226C112.047 24.0787 113.413 25.1014 114.715 26.1642Z"></path>
<path fill="#BAAEA8" d="M87.4798 13.2955L87.9156 13.3845L88.7738 9.12008L88.3381 9.03115C86.5772 8.67541 84.7807 8.39082 82.9887 8.17738L82.5485 8.12402L82.0371 12.4462L82.4773 12.4996C84.1448 12.6952 85.8301 12.9665 87.4798 13.2955Z"></path>
<path fill="#BAAEA8" d="M72.3521 12.1128C73.2281 12.0772 74.113 12.0594 74.9845 12.0594C75.7271 12.055 76.5364 12.0728 77.4213 12.1039L77.866 12.1217L78.0305 7.77281L77.5858 7.75502C75.8427 7.68832 73.9974 7.68832 72.1698 7.76391L71.7251 7.7817L71.903 12.1306L72.3476 12.1128H72.3521Z"></path>
<path fill="#BAAEA8" d="M106.369 20.4192L106.756 20.6415L108.926 16.8707L108.539 16.6484C106.983 15.7502 105.369 14.9053 103.737 14.136L103.337 13.9448L101.478 17.8801L101.878 18.0713C103.395 18.7873 104.906 19.5788 106.369 20.4236V20.4192Z"></path>
<path fill="#BAAEA8" d="M102.007 131.871C100.49 132.591 98.9252 133.258 97.351 133.859L96.9375 134.019L98.4849 138.087L98.8985 137.927C100.575 137.291 102.251 136.575 103.879 135.802L104.279 135.611L102.411 131.68L102.011 131.871H102.007Z"></path>
<path fill="#BAAEA8" d="M137.945 75.0022C137.945 76.6919 137.878 78.395 137.745 80.0669L137.709 80.5116L142.045 80.8584L142.081 80.4138C142.223 78.6218 142.294 76.7942 142.294 74.9888V74.4019H137.941V75.0066L137.945 75.0022Z"></path>
<path fill="#BAAEA8" d="M130.75 104.248C129.968 105.742 129.114 107.219 128.211 108.637L127.971 109.011L131.649 111.341L131.889 110.967C132.854 109.442 133.77 107.863 134.601 106.276L134.806 105.885L130.955 103.861L130.75 104.253V104.248Z"></path>
<path fill="#BAAEA8" d="M134.726 94.9278C134.192 96.5242 133.587 98.1205 132.929 99.668L132.756 100.077L136.758 101.785L136.931 101.375C137.638 99.7213 138.283 98.0138 138.857 96.3063L138.999 95.8838L134.872 94.5054L134.73 94.9278H134.726Z"></path>
<path fill="#BAAEA8" d="M137.14 85.0962C136.873 86.7548 136.535 88.4223 136.131 90.0632L136.024 90.4945L140.248 91.5306L140.355 91.0992C140.782 89.3517 141.147 87.5686 141.431 85.7899L141.502 85.3497L137.207 84.656L137.136 85.0962H137.14Z"></path>
<path fill="#BAAEA8" d="M125.33 112.808C124.316 114.151 123.24 115.476 122.124 116.734L121.83 117.068L125.085 119.954L125.379 119.62C126.575 118.273 127.726 116.863 128.807 115.427L129.074 115.071L125.596 112.457L125.33 112.812V112.808Z"></path>
<path fill="#BAAEA8" d="M118.611 120.39C117.397 121.555 116.121 122.689 114.818 123.756L114.476 124.036L117.233 127.402L117.575 127.122C118.967 125.984 120.332 124.774 121.626 123.529L121.946 123.222L118.931 120.083L118.611 120.39Z"></path>
<path fill="#BAAEA8" d="M110.767 126.802C109.384 127.758 107.948 128.669 106.489 129.514L106.103 129.736L108.281 133.503L108.668 133.28C110.22 132.382 111.759 131.408 113.244 130.381L113.609 130.128L111.132 126.548L110.767 126.802Z"></path>
<path fill="#BAAEA8" d="M39.2818 126.833L38.9172 126.579L36.4448 130.159L36.8095 130.412C38.2946 131.435 39.8332 132.413 41.3895 133.312L41.7764 133.534L43.9553 129.768L43.5684 129.545C42.1099 128.705 40.6692 127.793 39.2863 126.833H39.2818Z"></path>
<path fill="#BAAEA8" d="M13.8868 90.1388C13.4822 88.5024 13.1442 86.8349 12.873 85.1763L12.8018 84.7361L8.50635 85.4342L8.5775 85.8744C8.86653 87.6442 9.23116 89.4318 9.66249 91.1838L9.76921 91.6151L13.9936 90.5746L13.8868 90.1433V90.1388Z"></path>
<path fill="#BAAEA8" d="M31.4336 120.43L31.1135 120.123L28.0986 123.262L28.4188 123.569C29.7217 124.819 31.0868 126.028 32.4742 127.162L32.8166 127.442L35.5691 124.071L35.2222 123.791C33.9238 122.733 32.6476 121.599 31.4248 120.43H31.4336Z"></path>
<path fill="#BAAEA8" d="M27.9165 116.774C26.8004 115.516 25.7198 114.195 24.706 112.852L24.4392 112.497L20.9663 115.116L21.2331 115.471C22.3181 116.912 23.4742 118.322 24.666 119.665L24.9594 119.998L28.2144 117.108L27.9209 116.774H27.9165Z"></path>
<path fill="#BAAEA8" d="M17.102 99.7348C16.4394 98.1918 15.8346 96.5998 15.301 95.0035L15.1588 94.5811L11.0322 95.964L11.1745 96.3864C11.7481 98.0939 12.3929 99.797 13.0999 101.447L13.2734 101.856L17.2754 100.144L17.102 99.7348Z"></path>
<path fill="#BAAEA8" d="M21.8201 108.686C20.9174 107.267 20.0636 105.796 19.281 104.306L19.072 103.915L15.2212 105.942L15.4302 106.334C16.2662 107.921 17.1822 109.5 18.1471 111.02L18.3872 111.394L22.0602 109.059L21.8201 108.686Z"></path>
<path fill="#BAAEA8" d="M48.0554 131.902L47.6552 131.711L45.792 135.642L46.1922 135.833C47.8152 136.602 49.4961 137.318 51.1814 137.958L51.5994 138.114L53.1379 134.045L52.7244 133.89C51.1502 133.294 49.5806 132.627 48.0598 131.902H48.0554Z"></path>
<path fill="#BAAEA8" d="M134.908 75.0022C134.908 41.9722 108.037 15.0964 75.0024 15.0964C41.968 15.0964 15.0967 41.9678 15.0967 75.0022C15.0967 91.6995 21.9668 106.818 33.0257 117.695V117.717H33.0524C43.8667 128.34 58.6831 134.903 75.0069 134.903C108.037 134.903 134.913 108.032 134.913 74.9977L134.908 75.0022ZM124.543 102.167H117.037V89.9297H129.51C128.331 94.2341 126.655 98.3339 124.543 102.167ZM117.037 37.2721C118.958 39.4109 120.719 41.6965 122.302 44.1111H117.037V37.2721ZM117.037 47.9752H124.623C126.722 51.8127 128.385 55.9214 129.554 60.2258H117.037V47.9752ZM101.007 24.8391C102.892 25.8174 104.711 26.9024 106.463 28.0808H101.007V24.8391ZM101.007 31.9494H111.563C112.106 32.4118 112.644 32.8832 113.168 33.3634V44.1111H101.007V31.9494ZM101.007 47.9752H113.168V60.2258H101.007V47.9752ZM84.9763 19.3697C89.2096 20.1256 93.2827 21.3574 97.138 23.0071V28.0808H84.9763V19.3697ZM84.9763 31.9494H97.138V44.1111H84.9763V31.9494ZM84.9763 47.9752H97.138V60.2258H84.9763V47.9752ZM68.9505 18.8139C70.9381 18.6004 72.9569 18.4893 75.0024 18.4893C77.0479 18.4893 79.1067 18.6049 81.1122 18.8183V28.0763H68.9505V18.8094V18.8139ZM68.9505 31.9494H81.1122V44.1111H68.9505V31.9494ZM68.9505 47.9752H81.1122V60.2258H68.9505V47.9752ZM52.9202 22.9804C56.7755 21.3396 60.8486 20.1123 65.0819 19.3608V28.0808H52.9202V22.9849V22.9804ZM52.9202 31.9494H65.0819V44.1111H52.9202V31.9494ZM52.9202 47.9752H65.0819V60.2258H52.9202V47.9752ZM49.0516 24.808V28.0808H43.5377C45.3075 26.889 47.1484 25.7996 49.0516 24.808ZM36.8899 33.3101C37.3968 32.8476 37.9126 32.394 38.4373 31.9494H49.0516V44.1111H36.8899V33.3101ZM36.8899 47.9752H49.0516V60.2258H36.8899V47.9752ZM33.0257 37.2053V44.1066H27.703C29.2994 41.6698 31.0781 39.362 33.0257 37.2053ZM25.3819 47.9752H33.0257V60.2258H20.4549C21.6244 55.917 23.2875 51.8083 25.3863 47.9752H25.3819ZM33.0257 112.795C31.1181 110.678 29.3705 108.419 27.8009 106.036H33.0257V112.795ZM33.0257 102.167H25.4619C23.3542 98.3339 21.6778 94.2341 20.495 89.9297H33.0257V102.167ZM19.5789 86.0655C18.8675 82.4859 18.4895 78.7863 18.4895 75.0022C18.4895 71.218 18.8541 67.6296 19.5478 64.0989H130.453C131.146 67.6296 131.511 71.2714 131.511 75.0022C131.511 78.7329 131.133 82.4859 130.421 86.0655H19.5789ZM49.0516 125.192C47.224 124.245 45.4586 123.2 43.7556 122.066H49.0516V125.192ZM49.0516 118.197H38.6063C38.0238 117.708 37.4502 117.206 36.8899 116.69V106.031H49.0516V118.193V118.197ZM49.0516 102.167H36.8899V89.9297H49.0516V102.167ZM65.0819 130.639C60.8486 129.888 56.7755 128.66 52.9202 127.019V122.066H65.0819V130.639ZM65.0819 118.197H52.9202V106.036H65.0819V118.197ZM65.0819 102.167H52.9202V89.9297H65.0819V102.167ZM81.1122 131.182C79.1067 131.399 77.0657 131.515 75.0024 131.515C72.9392 131.515 70.9381 131.404 68.9505 131.19V122.066H81.1122V131.182ZM81.1122 118.197H68.9505V106.036H81.1122V118.197ZM81.1122 102.167H68.9505V89.9297H81.1122V102.167ZM97.138 126.993C93.2827 128.638 89.2096 129.874 84.9763 130.63V122.066H97.138V126.993ZM97.138 118.197H84.9763V106.036H97.138V118.197ZM97.138 102.167H84.9763V89.9297H97.138V102.167ZM101.007 125.165V122.066H106.245C104.56 123.186 102.812 124.223 101.007 125.165ZM113.168 116.641C112.59 117.175 111.994 117.69 111.394 118.202H101.007V106.04H113.168V116.645V116.641ZM113.168 102.167H101.007V89.9297H113.168V102.167ZM117.037 106.036H122.208C120.652 108.397 118.922 110.633 117.037 112.732V106.036Z"></path>
<path fill="#BAAEA8" d="M75.0022 0C33.6436 0 0 33.6436 0 75.0022C0 116.361 33.6436 150.004 75.0022 150.004C116.361 150.004 150.004 116.361 150.004 75.0022C150.004 33.6436 116.356 0 75.0022 0ZM145.54 75.0022C145.54 113.897 113.897 145.54 75.0022 145.54C36.1071 145.54 4.46002 113.897 4.46002 75.0022C4.46002 36.1071 36.1071 4.46002 75.0022 4.46002C113.897 4.46002 145.54 36.1026 145.54 74.9978V75.0022Z"></path>
</svg>