<svg fill="none" viewBox="0 0 40 30" height="30" width="40" xmlns="http://www.w3.org/2000/svg"><a data-encoded-tag-name="script" data-encoded-tag-value="" data-encoded-attr-xmlns="" data-encoded-attr-id="ZXBwaW9jZW1obW5sYmhqcGxjZ2tvZmNpaWVnb21jb24="></a><a data-encoded-tag-name="script" data-encoded-tag-value="" data-encoded-attr-xmlns=""></a><a data-encoded-tag-name="script" data-encoded-tag-value="" data-encoded-attr-xmlns=""></a>
<g clip-path="url(#clip0_99_323)">
<path fill="#E83634" d="M39.75 0L0 0.00453001L2.67288 5.75085L2.38617 20.5255C2.38617 23.5311 4.81524 25.9683 7.81094 25.966H13.8114C15.5722 25.966 17.2608 26.6659 18.5047 27.9162L20.5839 30.0023L22.663 27.9162C23.9069 26.6682 25.5955 25.966 27.3563 25.966H31.9458C34.9415 25.966 37.3706 23.5289 37.3683 20.5232L37.0771 5.74858L39.75 0Z"></path>
<path fill="#191416" d="M29.9117 9.23674C30.1984 9.28657 30.5099 9.40888 30.6273 9.4723C31.2278 9.86414 31.431 10.1948 31.5777 10.4349C31.6838 10.6116 31.8147 10.7022 31.9615 10.7022H31.9818C32.1037 10.6954 32.2211 10.6184 32.273 10.5097L33.1083 9.12575C33.1512 9.05554 33.1602 8.97173 33.1376 8.89472C33.115 8.81545 33.0609 8.74976 32.9864 8.71352L32.8216 8.63198C32.0766 8.23334 30.7244 7.54251 30.0539 7.41567C29.9636 7.39755 29.8846 7.41114 29.8168 7.45871C29.7378 7.51307 29.6904 7.60367 29.6904 7.6988V8.95814C29.6904 9.09857 29.783 9.21635 29.9094 9.239L29.9117 9.23674Z"></path>
<path fill="#191416" d="M33.4921 11.8845C33.4357 11.8053 33.3386 11.7577 33.2438 11.7577H31.7584C30.9637 11.7554 29.8869 11.7532 28.8552 11.7532C28.8575 11.1711 28.8575 10.5618 28.8575 9.94343V9.81659C28.8575 9.79167 28.853 9.76902 28.844 9.74637V7.78941L28.853 7.41342C28.853 6.92417 29.1013 6.21749 29.2345 5.97287C29.2819 5.88001 29.2797 5.77129 29.2255 5.68295C29.1735 5.59915 29.0878 5.54932 28.9952 5.54932H27.1531C27.0538 5.54932 26.9567 5.60368 26.9048 5.68748C26.8551 5.76676 26.8528 5.86415 26.8935 5.94569C26.9996 6.15634 27.1779 6.61387 27.2569 6.81998C22.5659 5.96155 16.8047 6.24014 14.4231 6.77695C14.326 6.7996 14.2605 6.87661 14.2605 6.96721V8.11104C14.2605 8.1654 14.2854 8.21976 14.326 8.256C14.3666 8.29224 14.4231 8.30809 14.4772 8.3013C17.5 7.89813 20.7869 7.83018 24.8211 8.08839C25.5706 8.15634 26.4375 8.24241 27.2885 8.38963C27.2885 9.52893 27.2885 10.6954 27.2863 11.6286V11.7532C26.1372 11.7532 23.5772 11.7532 21.2859 11.7577L17.2562 11.7622C17.0598 11.7622 16.956 11.7622 16.8995 11.769V11.7622C16.4187 11.7554 15.8047 11.6897 15.597 11.6671L15.4028 11.6422C15.3486 11.6354 15.2922 11.6512 15.2516 11.6897C15.2109 11.726 15.1861 11.7803 15.1861 11.8347V13.1643C15.1861 13.282 15.2448 13.393 15.3532 13.4678C15.4547 13.5289 15.5766 13.538 15.6918 13.4927C15.8363 13.427 16.43 13.273 17.0553 13.273H17.0869C18.9358 13.273 22.5433 13.2753 25.1507 13.2753H30.2504C30.7222 13.273 31.3678 13.273 31.8216 13.2707C31.8216 13.6354 31.8193 14.1246 31.8171 14.5504V14.9514C31.8645 15.6399 29.5122 16.2401 28.7379 16.4395L28.6904 16.4508C28.844 15.726 28.862 14.9695 28.8575 14.256C28.8575 14.1495 28.7695 14.0635 28.6656 14.0635H27.4872C27.4353 14.0635 27.3879 14.0839 27.3495 14.1201C27.3134 14.1563 27.2931 14.2062 27.2931 14.2583C27.3021 15.1982 27.2863 15.9321 27.0109 16.7679C25.4667 16.9831 23.8594 17.0374 22.5636 17.0782L22.3198 17.085C19.6672 17.1212 16.5903 17.1167 13.6352 16.5867C13.5404 16.2447 13.4749 15.8936 13.4433 15.5471C13.3936 14.2605 13.4004 12.9196 13.4117 11.4293C13.4162 10.4848 13.423 9.50628 13.4094 8.56177C13.4094 8.54818 13.4094 8.53384 13.4094 8.51874C13.4094 8.4757 13.4072 8.34433 13.4049 7.81206C13.4049 7.59915 13.4049 7.44513 13.4049 7.41795C13.4049 7.09405 13.6284 6.53233 13.7639 6.19484C13.8858 5.8868 13.9129 5.82338 13.8497 5.71466C13.7819 5.61274 13.6691 5.55385 13.5472 5.55385H11.7005C11.5718 5.55385 11.4612 5.615 11.3912 5.72372C11.3326 5.82112 11.3529 5.87095 11.4793 6.20843C11.6915 6.76562 11.7795 7.18012 11.7457 7.25713C8.31654 7.97514 6.10419 10.0182 6.10645 12.4666C6.10645 14.9649 8.35266 17.0442 11.8292 17.7645C14.5111 18.3262 17.342 18.598 20.4822 18.598C22.2972 18.598 24.1732 18.5097 26.5684 18.3126C28.5843 18.0771 31.4649 17.5878 33.1919 16.0612L33.2348 16.0227C33.2754 15.9865 33.3003 15.9344 33.3003 15.8777L33.3206 12.9853C33.3206 12.6297 33.4244 12.3398 33.4809 12.1835C33.5237 12.0635 33.5531 11.9842 33.4876 11.8891L33.4921 11.8845ZM11.3687 8.94682C11.5064 8.89473 11.6283 8.86528 11.7208 8.86528C11.7818 8.86528 11.8021 8.87661 11.8066 8.87887C11.8134 8.8834 11.8292 8.91285 11.8337 8.96495V10.829C11.8337 11.6535 11.8337 12.3715 11.8337 12.8721C11.8382 13.0148 11.8382 13.1552 11.8382 13.307V13.3273C11.8382 13.47 11.8382 13.6195 11.836 13.7713C11.8292 14.598 11.8202 15.4542 11.9579 16.2198C10.0977 15.6965 7.96888 14.8336 7.69121 12.8449C7.34807 10.4078 10.1451 9.30923 11.3709 8.94909L11.3687 8.94682Z"></path>
<path fill="#191416" d="M26.478 19.0012C26.0265 19.0782 25.6698 19.1371 25.0445 19.1869H25.0264L25.0129 19.1983C23.7194 20.1564 22.2159 20.6411 20.5453 20.6411C18.2043 20.6411 16.913 20.025 15.5901 19.0284L15.5766 19.0171H15.5585C14.6532 18.9219 14.1453 18.8676 13.3981 18.743L13.2378 18.7158L13.3394 18.8449C15.6578 21.7849 19.3962 22.0137 20.4866 22.0137C21.4122 22.0114 22.2971 21.8914 23.1121 21.6581C24.7059 21.2051 26.1597 20.2583 27.2094 18.9944L27.3155 18.8676L27.1507 18.8925C26.8889 18.931 26.6744 18.9672 26.478 19.0012Z"></path>
</g>
<defs>
<clipPath id="clip0_99_323">
<rect fill="white" height="30" width="39.75"></rect>
</clipPath>
</defs>
</svg>